<?xml version="1.0" encoding="UTF-8" standalone="no"?>
<svg viewBox="0 0 1052.3622 744.09448" xmlns="http://www.w3.org/2000/svg" xmlns:xlink="http://www.w3.org/1999/xlink">
<defs>
<linearGradient id="linearGradient2645">
<stop offset="0" stop-color="#8dabd6"/>
<stop offset="1" stop-color="#b1cef8"/>
<stop offset="1" stop-color="#8dabd6" stop-opacity="0"/>
</linearGradient>
<linearGradient id="linearGradient2168">
<stop offset="0" stop-color="#9c0002"/>
<stop offset=".47826" stop-color="#db1c1c"/>
<stop offset="1" stop-color="#c30200"/>
<stop offset="1" stop-color="#edbebe"/>
<stop offset="1" stop-color="#591702" stop-opacity="0"/>
</linearGradient>
<linearGradient id="linearGradient2142">
<stop offset="0" stop-color="#591702"/>
<stop offset="1" stop-color="#edbebe"/>
<stop offset="1" stop-color="#591702" stop-opacity="0"/>
</linearGradient>
<linearGradient gradientTransform="matrix(1.39808,0,0,2.04563,-114.7966,-142.9039)" gradientUnits="userSpaceOnUse" id="linearGradient2778" x1="423.21365" x2="356.2851" y1="116.83797" y2="117.17261">
<stop offset="0"/>
<stop offset="1" stop-opacity="0"/>
</linearGradient>
<linearGradient gradientTransform="scale(.61023,1.63873)" gradientUnits="userSpaceOnUse" id="linearGradient2807" x1="760.59979" x2="54.55511" y1="59.34037" y2="524.57349">
<stop offset="0" stop-color="#e9f3ff"/>
<stop offset="1" stop-color="#364978"/>
<stop offset="1" stop-color="#e9f3ff" stop-opacity="0"/>
</linearGradient>
<linearGradient gradientTransform="matrix(.89534,0,0,2.1824,-5.0134,-117.8085)" gradientUnits="userSpaceOnUse" id="linearGradient2733" x1="440.70517" x2="475.83563" xlink:href="#linearGradient2168" y1="155.82439" y2="180.4323"/>
<linearGradient gradientTransform="matrix(.91951,0,0,2.12504,-5.0134,-117.8085)" gradientUnits="userSpaceOnUse" id="linearGradient2746" x1="892.2536" x2="957.26489" xlink:href="#linearGradient2168" y1="148.36475" y2="167.23521"/>
<linearGradient gradientTransform="matrix(.98223,0,0,1.98935,-5.0134,-111.8085)" gradientUnits="userSpaceOnUse" id="linearGradient2754" spreadMethod="reflect" x1="815.75031" x2="850.07312" xlink:href="#linearGradient2645" y1="314.55432" y2="312.96539"/>
<linearGradient gradientTransform="matrix(1.20057,0,0,1.62756,-5.0134,-111.8085)" gradientUnits="userSpaceOnUse" id="linearGradient2757" spreadMethod="reflect" x1="397.94455" x2="421.63489" xlink:href="#linearGradient2645" y1="406.19302" y2="412.11569"/>
<linearGradient gradientTransform="matrix(.8037,0,0,2.43126,-5.0134,-117.8085)" gradientUnits="userSpaceOnUse" id="linearGradient2765" x1="547.8728" x2="553.06183" xlink:href="#linearGradient2142" y1="136.16307" y2="187.17781"/>
<linearGradient gradientTransform="matrix(2.14101,0,0,.90793,-.82677,-117.8085)" gradientUnits="userSpaceOnUse" id="linearGradient2768" x1="283.96664" x2="304.58871" xlink:href="#linearGradient2142" y1="322.99158" y2="537.73578"/>
<linearGradient gradientTransform="matrix(2.17014,0,0,.9004,-7.80911,-123.3999)" gradientUnits="userSpaceOnUse" id="linearGradient2771" x1="295.31308" x2="207.39342" xlink:href="#linearGradient2168" y1="826.63483" y2="693.72699"/>
<linearGradient gradientUnits="userSpaceOnUse" id="linearGradient2775" x1="998.97314" x2="391.60301" xlink:href="#linearGradient2168" y1="444.37604" y2="87.72007"/>
<linearGradient gradientTransform="matrix(1.27421,0,0,1.5335,-5.0134,-117.8085)" gradientUnits="userSpaceOnUse" id="linearGradient2781" x1="435.98782" x2="441.1926" xlink:href="#linearGradient2168" y1="111.34908" y2="172.83257"/>
<linearGradient gradientUnits="userSpaceOnUse" id="linearGradient2817" x1="355.89859" x2="704.28213" xlink:href="#linearGradient2645"/>
</defs>
<path d="m784.22407,178.95465c0,0 13.3769-1.91098 28.66479,7.64395s13.37691,38.21973 13.37691,38.21973 7.64394,21.02085 0,30.57578-19.10986,22.93185-19.10986,22.93185" fill="none" stroke="#000" stroke-width="10.20435"/>
<path d="m255.7655,419.27885c3.82198,63.06255 1.91099,103.19327 1.91099,103.19327s0,24.84283 17.19887,32.48677 87.9054,84.08342 166.25584,126.12512c49.68564,11.46592 91.72737,5.73295 217.85247-7.64395 133.76906-21.02085 164.34484-9.55493 175.81077-30.57578s5.73296-107.01526 5.73296-107.01526l-380.28633-120.39215-204.47557,3.82198z" fill-rule="evenodd"/>
<path d="m256.96438,424.38485 131.91788,37.15998-31.58596-393.89567-113.33792,137.49189 13.006,219.2438z" fill="url(#linearGradient2807)" fill-rule="evenodd" stroke="#000" stroke-width="2.79571"/>
<path d="m357.2963,69.50715 345.5877-26.01198-245.25579,406.90166-68.74595,14.86398-31.58596-395.75367z" fill="url(#linearGradient2817)" fill-rule="evenodd" stroke="#000" stroke-width="2.79571"/>
<path d="m394.69736,459.68683-22.52975-410.61766 337.94625-18.57998c0,0 14.90294,9.29 22.41285,24.15399s13.08393,39.01796 13.08393,39.01796l-334.01597,61.31395 40.97337,336.29772-57.87068-31.58598z" fill="url(#linearGradient2781)" fill-rule="evenodd" stroke="#000" stroke-width="2.80969"/>
<path d="m388.37836,141.96909 45.09587-30.78097c0,0-2.37347-7.69527-21.36121-28.2159s-28.48158-23.08576-28.48158-23.08576-18.98773-15.39048-4.74695,5.13017 11.86735,14.13413 11.86735,26.95954 4.74692,19.21194-2.37348,29.47227 0,20.52064 0,20.52064z" fill="url(#linearGradient2778)" fill-rule="evenodd"/>
<path d="m407.46226,463.40282 52.02395,33.44398c0,0 3.71599,5.57399 16.72198,5.57399s353.0197-33.44397 353.0197-33.44397-1.85799-144.92388-9.28999-156.07186c-3.04036-9.1211-7.93872-20.43799-10.30344-20.77581l.50671-18.24216c0,0-2.36471-21.11362-6.92526-40.87598-9.28998-39.01796-35.17137-119.9274-52.02395-150.49786-174.50734,7.8812-299.13775,18.57999-315.85974,24.15398s-35.30196,22.29598-35.30196,22.29598-5.574,0-9.28999,3.71599 3.71599,161.64586 3.71599,161.64586-3.71599-5.57399 1.858,3.71601 9.29,63.17195 9.29,96.61592 1.858,68.74593 1.858,68.74593z" fill="url(#linearGradient2775)" fill-rule="evenodd" stroke="#000" stroke-linejoin="round" stroke-width="2.79571"/>
<path d="m272.6813,514.96971c-3.82196,11.46591-40.13071,1.91098-51.59662,9.55493s-28.6648,21.02085-26.75382,34.39776 82.17242,137.59104 116.57018,154.78992 59.24059,11.46591 189.18767,1.91098 292.38094-47.77466 311.49081-66.88453 26.75382-32.48677 26.75382-32.48677l-271.3601-7.64394-256.0722-80.26144-38.21974-13.37691z" fill-opacity=".21081" fill-rule="evenodd"/>
<path d="m413.95653,468.95939 46.44996,22.29599c0,0-9.28999,1.85799 13.00599,3.71599s340.01371-35.30197 340.01371-35.30197 16.72199,3.716 16.72199-7.432-3.71601-14.86398-3.71601-14.86398 11.148,5.574 13.00601,18.57998 5.57399,104.04792 3.71599,111.47992-3.71599,11.14798-13.00599,13.00598-312.14373,40.87597-312.14373,40.87597-9.29,1.85799-35.30198-1.858-33.44397-14.86399-33.44397-14.86399 3.71599-42.73397-3.716-65.02994-3.71599-52.02397-26.01198-59.45596-22.29597,1.858-22.29597,1.858v-22.29598l16.72198,9.28999z" fill="url(#linearGradient2771)" fill-rule="evenodd" stroke="#000" stroke-width="1.39786"/>
<path d="m448.33081,205.14104 9.24192,111.47991c9.24193,5.57399 62.8451-1.85799 160.80952-9.28999 173.74819-13.006 182.9901-18.57999 182.9901-18.57999s5.54517-16.72198-5.54516-52.02395-18.48383-65.02995-25.87739-68.74594c-11.09029,1.858-64.69346,1.858-147.8708,7.43199-107.20633,14.86399-175.52019,8.35332-173.74819,29.72797z" fill="url(#linearGradient2768)" fill-rule="evenodd" stroke="#000" stroke-width="2.78847"/>
<path d="m426.04224,206.99904-16.72199,13.00599 3.716,76.17794c0,0 7.432,3.716 16.72198,11.14799s14.86399,9.28999 14.86399,9.28999-1.858-39.01797-5.57399-70.60393-13.00599-39.01798-13.00599-39.01798z" fill="url(#linearGradient2765)" fill-rule="evenodd" stroke="#000" stroke-width="2.79571"/>
<path d="m446.86263,313.42883c0,0-38.05622-12.01774-40.05918-38.05622s4.00592-42.06215 6.00888-52.07693 4.0059-10.0148 24.0355-12.01776-8.01184,0-8.01184,0" fill="none" stroke="#000" stroke-linecap="round" stroke-width="12.02156"/>
<path d="m505.93617,411.37887c0,0 0,22.29598 1.858,35.30197s1.85799,14.86399 1.85799,14.86399 89.18392-1.858 167.21986-11.14799 115.1959-18.57999 115.1959-18.57999 1.85801-16.72198 0-31.58597-5.57399-16.72199-5.57399-16.72199-48.30796,11.148-118.9119,16.72199-161.64586,11.14799-161.64586,11.14799z" fill="#591702" fill-opacity=".98919" fill-rule="evenodd" stroke="#fff" stroke-opacity=".81081" stroke-width="4.33335"/>
<path d="m533.80614,515.12663 1.85801,18.98395c0,0 48.30796,0 120.76989-6.32798s126.34389-17.40197 126.34389-17.40197l1.96399-18.89373c0,0-74.42593,4.65576-120.87588,7.81975s-130.0599,15.81998-130.0599,15.81998z" fill-opacity=".52432" fill-rule="evenodd" stroke="#000" stroke-width="1.28986"/>
<path d="m286.69087,514.99791c-23.90489-2.16263-36.06548,6.99105-61.96246,9.15366s3.98416,34.60172 9.96038,49.73998c19.92075,17.30086 107.572,131.91904 157.37386,140.56946s129.4848,15.13827 185.26288,4.32522 239.0489-30.27651 247.0172-49.73997-.26752-49.63799-.26752-49.63799l-439.98087,10.71107-97.40347-115.12143z" fill-opacity=".21081" fill-rule="evenodd"/>
<path d="m546.81213,557.27326 1.858,23.2786c0,0 55.73995,1.66276 118.9119-4.98826s109.6219-19.95308 109.6219-19.95308l-3.71599-21.61585c0,0-52.02396-3.32551-115.1959,3.32551s-111.47991,19.95308-111.47991,19.95308z" fill-opacity=".59459" fill-rule="evenodd" stroke="#000" stroke-width="1.32237"/>
<path d="m474.3502,527.00077 3.71599,53.88196 50.16596,5.57399c0,0-5.57399-20.43798-13.00599-42.73395s-7.43199-31.58599-16.72199-31.58599-11.14798,0-18.57998,5.57401-5.57399,9.28998-5.57399,9.28998z" fill="url(#linearGradient2757)" fill-rule="evenodd" stroke="#000" stroke-width="2.79571"/>
<path d="m797.64192,553.01275 37.15997-7.43199c0,0 0-29.72797-3.716-50.16595s-3.71599-20.43799-9.28999-20.43799-13.006-1.858-16.72199,11.14799-7.43199,66.88794-7.43199,66.88794z" fill="url(#linearGradient2754)" fill-rule="evenodd" stroke="#000" stroke-width="2.79571"/>
<path d="m764.19795,127.10511-14.86399-40.87596-144.92388,11.14799c0,0 104.04791-1.85799 117.0539-1.85799s20.43798,1.85799 27.86998,11.14799 14.86399,20.43798 14.86399,20.43798z" fill-opacity=".34054" fill-rule="evenodd"/>
<path d="m448.33821,324.05294c0,0 11.148,20.43799 11.148,50.16597s9.28998,81.75193 7.43199,94.75791-1.858,26.01198-1.858,26.01198 13.00599-16.72199 11.14799-55.73996-3.71599-83.60993-11.14799-96.61592-16.72199-18.57998-16.72199-18.57998z" fill-opacity=".12973" fill-rule="evenodd"/>
<path d="m396.77304,140.49941 25.97535-21.14788c0,0 7.22145-2.55681 12.77015-3.08725s7.67047,21.66433 7.23542,36.63769-.33967,35.49538-.33967,35.49538-2.13573-61.38931-11.56038-62.35481-34.08087,14.45687-34.08087,14.45687z" fill="#000002" fill-opacity=".21081" fill-rule="evenodd"/>
<path d="m446.48022,497.1308c0,0 3.71599,7.43199 20.43798,7.43199s44.59196-3.71599 44.59196-3.71599-35.30197,7.432-39.01796,11.14799-3.71601,57.59795-3.71601,74.31993v27.86998c0,0-3.71599-89.18393-7.43198-100.33191s-14.86399-16.72199-14.86399-16.72199z" fill="#000002" fill-opacity=".21081" fill-rule="evenodd"/>
<path d="m520.50791,394.89613c0,0 179.63274-3.82196 227.4074-13.37689s59.2406-13.37691 63.06256-22.93185-1.91098-51.59664-11.46591-55.41861 3.82197,17.19888 1.91098,38.21973-5.73296,36.30875-280.91503,53.50762z" fill-opacity=".14595" fill-rule="evenodd"/>
<path d="m837.73169,253.48313c0,0-15.28789,9.55494-15.28789-1.91099s-11.46593-53.50762-9.55494-59.24058 5.73296-11.46593 17.19887-5.73296 13.37691,26.75381 13.37691,38.21973 0,24.84283-5.73295,28.6648z" fill="url(#linearGradient2746)" fill-rule="evenodd" stroke="#000" stroke-width="2.9355"/>
<path d="m308.3884,463.69166 3.82198,66.88453 26.7538,26.75381-3.82197-82.17243-26.75381-11.46591z" fill="#fff" fill-opacity=".45946" fill-rule="evenodd" stroke="#000" stroke-width="1.39786"/>
<path d="m264.43572,434.00059 133.76906,43.95269" fill="none" stroke="#00002c" stroke-linecap="round" stroke-width="22.22591"/>
<path d="m254.88078,436.93784 0,0z" fill="none" stroke="#000" stroke-width="1.39786"/>
<path d="m405.84871,591.72776c1.911-57.3296-5.73295-61.15157 5.73297-76.43946s21.02085-5.73296 21.02085-5.73296-5.73296-15.2879-15.28789,7.64394-11.46593,74.52848-11.46593,74.52848z" fill="#fff" fill-opacity=".47568" fill-rule="evenodd"/>
<path d="m337.0532,503.82237 3.82198,51.59664 22.93184-5.73296c0,0-3.82198,3.82198-19.10988-13.37691-3.82198-19.10986-7.64394-32.48677-7.64394-32.48677z" fill="#fff" fill-opacity=".32432" fill-rule="evenodd" stroke="#000" stroke-width="1.39786"/>
<path d="m263.40945,518.65015c-22.93184-1.91099 5.73296,9.55494-19.10986,11.46592s3.82197,30.57579 9.55493,43.9527c19.10986,15.28789 103.19326,116.57018 150.96794,124.21411s124.21412,13.37691 177.72175,3.82198 229.31839-26.75382 236.96234-43.95269-141.41301-28.6648-141.41301-28.6648l-280.91503-5.73295-133.76906-105.10427z" fill-opacity=".21081" fill-rule="evenodd"/>
<path d="m426.86957,560.40878c5.73296,19.10987 7.64394,28.6648 3.82198,34.39776s-7.64395-9.55494-7.64395-9.55494-5.73296,19.10987-1.91098,21.02086 13.37689,11.46592 13.37689-11.46592 3.82198,1.91099 1.911-15.28789-9.55494-19.10987-9.55494-19.10987z" fill="#fff" fill-opacity=".32432" fill-rule="evenodd" stroke="#000" stroke-width="1.39786"/>
<path d="m516.9312,687.226c0,0 65.81151-8.51258 67.7225-27.62245s-16.37113-26.7538 29.49255-19.10986 59.2406-3.82198 82.17242,3.82197 80.987,15.64556 39.53801,19.33468c-78.50373,10.19875-218.92548,23.57566-218.92548,23.57566z" fill="#808080" fill-opacity=".45946" fill-rule="evenodd"/>
<path d="m279.40681,517.73069c4.00592,4.0059 8.01184,6.00886 4.00592,14.0207s-2.00296,18.02664 4.00592,6.00888-8.01184-20.02958-8.01184-20.02958z" fill="#fff" fill-opacity=".42162" fill-rule="evenodd"/>
<path d="m280.61702,559.45968 110.16275,90.13317c0,0-14.02072-22.03256-46.06806-54.07991s-64.09469-36.05326-64.09469-36.05326z" fill="#fff" fill-opacity=".34054" fill-rule="evenodd"/>
<path d="m397.39754,211.27791h16.39136a7.82799,24.46248 0 0,1 7.82799,24.46248v29.19045a7.82799,24.46248 0 0,1 -7.82799,24.46248h-16.39136a7.82799,24.46248 0 0,1 -7.82799-24.46248v-29.19045a7.82799,24.46248 0 0,1 7.82799-24.46248" fill="url(#linearGradient2733)" stroke="#000" stroke-linecap="round" stroke-linejoin="round" stroke-width="4.05378"/>
<path d="m575.67207,458.80693 161.4589-66.34041" fill="none" stroke="#fff" stroke-opacity=".79459" stroke-width="2.85"/>
<path d="m640.25653,478.06485h17.26558v14.01983h-17.26558z" fill="#d7dae0" fill-opacity=".76216" stroke="#fff" stroke-linecap="round" stroke-linejoin="round" stroke-opacity=".79459" stroke-width="1.76422" transform="matrix(.99589,-9.059657e-2,2.822132e-2,.9996,0,0)"/>
<path d="m434,482.09448c0,0 16,10 26,12s36,0 36,0l330-32c0,0-84,22-214,32s-142,10-154,6-24-18-24-18z" fill="#ffffa4" fill-opacity=".2973" fill-rule="evenodd"/>
<path d="m486,376.09448c0,0-12-30-8-40s302-32 302-32-270,28-286,38-8,34-8,34z" fill="#fff" fill-opacity=".27568" fill-rule="evenodd"/>
<path d="m723.84615,79.91266-13.84615-45.81818c0,0 6.92308,15.27273 13.84615,28.36364s16.15385,19.63636 16.15385,19.63636l-16.15385-2.18182z" fill="#fff" fill-opacity=".41622" fill-rule="evenodd"/>
</svg>
